<svg width="25" height="26" viewBox="0 0 25 26" fill="none" xmlns="http://www.w3.org/2000/svg">
<path fill-rule="evenodd" clip-rule="evenodd" d="M2.5 13.9864C2.5 13.7709 2.57762 13.5642 2.71579 13.4119C2.85395 13.2595 3.04134 13.1739 3.23674 13.1739H20.6135L15.9764 8.06163C15.8381 7.90906 15.7604 7.70214 15.7604 7.48638C15.7604 7.27062 15.8381 7.06369 15.9764 6.91113C16.1148 6.75856 16.3024 6.67285 16.498 6.67285C16.6937 6.67285 16.8813 6.75856 17.0196 6.91113L22.9136 13.4111C22.9822 13.4866 23.0366 13.5763 23.0737 13.675C23.1109 13.7737 23.13 13.8795 23.13 13.9864C23.13 14.0932 23.1109 14.1991 23.0737 14.2978C23.0366 14.3965 22.9822 14.4862 22.9136 14.5616L17.0196 21.0616C16.8813 21.2142 16.6937 21.2999 16.498 21.2999C16.3024 21.2999 16.1148 21.2142 15.9764 21.0616C15.8381 20.9091 15.7604 20.7021 15.7604 20.4864C15.7604 20.2706 15.8381 20.0637 15.9764 19.9111L20.6135 14.7989H3.23674C3.04134 14.7989 2.85395 14.7133 2.71579 14.5609C2.57762 14.4085 2.5 14.2019 2.5 13.9864Z" fill="#1A1A1A"/>
</svg>
