<svg width="24" height="25" viewBox="0 0 24 25" fill="none" xmlns="http://www.w3.org/2000/svg">
<path fill-rule="evenodd" clip-rule="evenodd" d="M6.969 22.0306C6.89916 21.961 6.84374 21.8782 6.80593 21.7871C6.76812 21.696 6.74866 21.5983 6.74866 21.4996C6.74866 21.401 6.76812 21.3033 6.80593 21.2122C6.84374 21.1211 6.89916 21.0383 6.969 20.9686L15.4395 12.4996L6.969 4.03064C6.82817 3.88981 6.74906 3.6988 6.74906 3.49964C6.74906 3.30047 6.82817 3.10947 6.969 2.96864C7.10983 2.82781 7.30084 2.74869 7.5 2.74869C7.69917 2.74869 7.89017 2.82781 8.031 2.96864L17.031 11.9686C17.1008 12.0383 17.1563 12.1211 17.1941 12.2122C17.2319 12.3033 17.2513 12.401 17.2513 12.4996C17.2513 12.5983 17.2319 12.696 17.1941 12.7871C17.1563 12.8782 17.1008 12.961 17.031 13.0306L8.031 22.0306C7.96133 22.1005 7.87857 22.1559 7.78745 22.1937C7.69633 22.2315 7.59865 22.251 7.5 22.251C7.40135 22.251 7.30367 22.2315 7.21255 22.1937C7.12143 22.1559 7.03867 22.1005 6.969 22.0306Z" fill="#9747FF"/>
</svg>
