<svg width="7" height="10" viewBox="0 0 7 10" fill="none" xmlns="http://www.w3.org/2000/svg">
<path d="M5.2208 0.26837C5.27919 0.302219 5.32437 0.354868 5.34897 0.417717C5.37357 0.480565 5.37612 0.549897 5.35622 0.614387L4.28178 4.10558H6.26422C6.32248 4.10555 6.37947 4.12259 6.42816 4.15459C6.47684 4.18658 6.51509 4.23214 6.53819 4.28562C6.56128 4.33911 6.56821 4.39819 6.55811 4.45556C6.54802 4.51294 6.52134 4.56611 6.48137 4.6085L1.70873 9.67943C1.66255 9.72854 1.6011 9.76056 1.53439 9.77026C1.46768 9.77997 1.39966 9.7668 1.34139 9.7329C1.28313 9.69899 1.23807 9.64635 1.21356 9.58356C1.18905 9.52076 1.18652 9.45152 1.20641 9.38711L2.28085 5.89532H0.298409C0.24015 5.89534 0.18316 5.87831 0.134473 5.84631C0.0857855 5.81432 0.0475335 5.76876 0.0244387 5.71528C0.00134385 5.66179 -0.00558277 5.60271 0.00451383 5.54533C0.0146104 5.48796 0.0412882 5.43479 0.081254 5.3924L4.8539 0.321466C4.90002 0.272426 4.96138 0.240431 5.02799 0.230683C5.09461 0.220935 5.16256 0.234007 5.2208 0.267774V0.26837Z" fill="#1A1A1A"/>
</svg>
