<svg width="32" height="32" viewBox="0 0 32 32" fill="none" xmlns="http://www.w3.org/2000/svg">
<path fill-rule="evenodd" clip-rule="evenodd" d="M3.77082 1.02039C4.12076 0.670949 4.54096 0.399875 5.00358 0.225131C5.4662 0.0503863 5.96066 -0.0240391 6.45422 0.00678674C6.94777 0.0376126 7.42914 0.172986 7.86642 0.403935C8.3037 0.634885 8.68691 0.956137 8.99066 1.3464L12.5805 5.95861C13.2385 6.80465 13.4705 7.9067 13.2105 8.94675L12.1166 13.327C12.0604 13.5538 12.0636 13.7914 12.126 14.0166C12.1884 14.2419 12.3077 14.4473 12.4726 14.613L17.3864 19.5272C17.5523 19.6924 17.758 19.812 17.9836 19.8744C18.2093 19.9367 18.4472 19.9398 18.6744 19.8833L23.0522 18.7892C23.5655 18.6616 24.101 18.652 24.6185 18.7611C25.136 18.8703 25.6221 19.0953 26.0401 19.4192L30.652 23.0074C32.3099 24.2975 32.4619 26.7476 30.978 28.2296L28.91 30.2977C27.4301 31.7778 25.2182 32.4278 23.1562 31.7018C17.8777 29.8469 13.0856 26.8251 9.13666 22.8614C5.17352 18.9127 2.15198 14.1209 0.296933 8.84275C-0.427045 6.78265 0.222935 4.56855 1.70289 3.08848L3.77082 1.02039Z" fill="white"/>
</svg>
