<svg width="120" height="26" viewBox="0 0 120 26" fill="none" xmlns="http://www.w3.org/2000/svg">
<path d="M6.42665 18.4604C5.61893 18.4604 4.84632 18.2463 4.10884 17.818C3.7401 17.6039 3.38014 17.354 3.02895 17.0685C2.67777 16.7652 2.34415 16.4172 2.02808 16.0246C1.71202 15.6142 1.42229 15.1681 1.1589 14.6863C0.913075 14.1867 0.702366 13.6602 0.526774 13.1071C0.175591 11.9472 0 10.6892 0 9.33298C0 7.9768 0.175591 6.73662 0.526774 5.61242C0.702366 5.05924 0.913075 4.55068 1.1589 4.08672C1.42229 3.62277 1.70324 3.20343 2.00174 2.82869C2.59875 2.07923 3.29234 1.49929 4.0825 1.08887C4.83754 0.696288 5.61893 0.5 6.42665 0.5C7.23437 0.5 8.01575 0.696288 8.77079 1.08887C9.56095 1.49929 10.2545 2.07923 10.8516 2.82869C11.1501 3.20343 11.4222 3.62277 11.6681 4.08672C11.9314 4.55068 12.1509 5.05924 12.3265 5.61242C12.6777 6.73662 12.8533 7.9768 12.8533 9.33298C12.8533 10.707 12.6689 11.9739 12.3002 13.1338C11.9314 14.2937 11.4398 15.2662 10.8252 16.0514C10.5267 16.444 10.2019 16.783 9.85068 17.0685C9.51706 17.354 9.15709 17.6039 8.77079 17.818C8.01575 18.2463 7.23437 18.4604 6.42665 18.4604ZM6.42665 17.2024C7.56799 17.2024 8.13866 15.5161 8.13866 12.1435V6.33512C8.13866 5.65703 8.10354 5.0414 8.03331 4.48822C7.96307 3.9172 7.85772 3.40864 7.71724 2.96253C7.41874 2.07031 6.98854 1.6242 6.42665 1.6242C5.86475 1.6242 5.43456 2.07031 5.13605 2.96253C4.8551 3.81906 4.71463 4.94326 4.71463 6.33512V12.1435C4.71463 15.5161 5.2853 17.2024 6.42665 17.2024Z" fill="#1A1A1A"/>
<path d="M24.0261 16.4529C24.0261 17.1845 23.9558 17.6663 23.8153 17.8983C23.6749 18.1303 23.4027 18.2463 22.9988 18.2463H16.0191C15.5274 18.2463 15.2816 18.0232 15.2816 17.5771V6.60278C15.2816 6.2459 15.4221 6.06745 15.703 6.06745H22.6038C22.9374 6.06745 23.1657 6.12991 23.2886 6.25482C23.4115 6.37973 23.4729 6.58494 23.4729 6.87045C23.4729 7.08458 23.3851 7.37009 23.2096 7.72698C23.1218 7.90542 23.0515 8.07495 22.9988 8.23555C22.9637 8.39615 22.9286 8.5389 22.8935 8.66381C22.8759 8.89579 22.832 9.101 22.7618 9.27944C22.7091 9.44004 22.6477 9.59172 22.5774 9.73447C22.4369 10.02 22.2965 10.1627 22.156 10.1627C21.7697 10.1627 21.3395 9.60064 20.8654 8.47645C20.7249 8.1374 20.4615 7.79836 20.0752 7.45931C19.7241 7.15596 19.3729 7.00428 19.0217 7.00428C18.8461 7.00428 18.732 7.10243 18.6793 7.29872C18.6617 7.40578 18.6442 7.53961 18.6266 7.70021C18.6266 7.84297 18.6266 8.02141 18.6266 8.23555V11.7955C19.5397 11.7955 20.4264 11.9739 21.2868 12.3308C22.1121 12.6699 22.7706 13.1963 23.2622 13.9101C23.7714 14.6417 24.0261 15.4893 24.0261 16.4529ZM20.7601 16.56C20.7601 15.4893 20.6723 14.6774 20.4967 14.1242C20.3211 13.571 20.0752 13.1874 19.7592 12.9732C19.4782 12.7769 19.1007 12.6788 18.6266 12.6788V17.4433C19.2939 17.4433 19.8119 17.3808 20.1806 17.2559C20.5669 17.131 20.7601 16.899 20.7601 16.56Z" fill="#1A1A1A"/>
<path d="M34.1969 14.7131C34.5305 14.7131 34.7412 14.7755 34.829 14.9004C34.9344 15.0075 34.9871 15.2395 34.9871 15.5964C34.9871 16.2209 34.8027 16.7473 34.434 17.1756C34.0652 17.6039 33.6526 17.934 33.196 18.166C32.6341 18.4515 31.8879 18.5942 30.9572 18.5942C29.7808 18.5942 28.815 18.2909 28.06 17.6842C27.3049 17.0596 26.7518 16.3012 26.4007 15.409C26.0144 14.4454 25.8212 13.3926 25.8212 12.2505C25.8212 10.823 26.1021 9.59172 26.664 8.55675C27.2259 7.52177 27.9722 6.75446 28.9028 6.25482C29.5701 5.89793 30.2988 5.71949 31.0889 5.71949C31.8089 5.71949 32.441 5.87116 32.9853 6.17452C33.5297 6.47787 33.9511 6.85261 34.2496 7.29872C34.5481 7.74483 34.6973 8.20878 34.6973 8.69058C34.6973 9.24376 34.5744 9.52034 34.3286 9.52034C34.3286 9.52034 34.3198 9.52034 34.3023 9.52034H32.1425C31.8967 9.52034 31.7299 9.46681 31.6421 9.35974C31.5543 9.25268 31.5104 9.07423 31.5104 8.82441C31.5104 7.62884 31.2645 7.03105 30.7729 7.03105C30.4568 7.03105 30.1495 7.26303 29.851 7.72698C29.5701 8.17309 29.4296 8.97609 29.4296 10.136C29.4296 10.9925 29.6754 11.4208 30.1671 11.4208H33.3541C33.9862 11.4208 34.3023 11.6527 34.3023 12.1167C34.3023 12.4022 34.2232 12.5985 34.0652 12.7056C33.9247 12.7948 33.7053 12.8394 33.4068 12.8394H30.0091C29.7808 12.8394 29.6228 12.9643 29.535 13.2141C29.4647 13.464 29.4296 13.7316 29.4296 14.0171C29.4296 15.2662 29.535 16.1495 29.7457 16.667C29.9564 17.1845 30.29 17.4433 30.7465 17.4433C31.2733 17.4433 31.5367 16.9793 31.5367 16.0514C31.5367 15.1592 31.765 14.7131 32.2215 14.7131H34.1969Z" fill="#1A1A1A"/>
<path d="M45.73 13.3212C45.73 14.0528 45.5983 14.838 45.3349 15.6767C45.0715 16.4975 44.7028 17.1934 44.2287 17.7645C43.7546 18.3176 43.2366 18.5942 42.6747 18.5942C41.8143 18.5942 41.1909 18.3176 40.8046 17.7645C40.5939 18.157 40.4622 18.5585 40.4096 18.9689C40.392 19.1652 40.3657 19.4151 40.3305 19.7184C40.313 20.0218 40.2954 20.3608 40.2779 20.7355C40.2603 20.9675 40.2515 21.1995 40.2515 21.4315C40.2515 21.6813 40.2427 21.9133 40.2252 22.1274C40.2076 22.3415 40.1988 22.5646 40.1988 22.7966C40.1988 23.0464 40.1813 23.3141 40.1462 23.5996C40.0408 24.8665 39.8301 25.5 39.514 25.5C39.2155 25.5 38.9873 25.3216 38.8292 24.9647C38.6536 24.5899 38.5044 24.01 38.3815 23.2248C38.3639 23.0642 38.3376 22.859 38.3025 22.6092C38.2673 22.3772 38.2322 22.1006 38.1971 21.7794C38.162 21.4582 38.1181 21.1638 38.0654 20.8961C38.0303 20.6463 37.9952 20.4322 37.9601 20.2537C37.9425 20.0575 37.9074 19.8522 37.8547 19.6381C37.8196 19.424 37.7845 19.2009 37.7493 18.9689C37.6264 18.273 37.5211 17.6395 37.4333 17.0685C37.3455 16.4975 37.2753 15.98 37.2226 15.5161C37.1172 14.5703 37.0645 13.464 37.0645 12.197C37.0645 11.2156 37.2314 10.2252 37.565 9.22591C37.8986 8.22662 38.2937 7.38794 38.7502 6.70985C39.1892 6.04961 39.5667 5.71949 39.8828 5.71949C40.4271 5.71949 41.1734 6.0853 42.1216 6.81692C42.6132 7.19165 43.061 7.61991 43.4648 8.10171C43.8863 8.58351 44.2813 9.10992 44.6501 9.68094C45.37 10.8051 45.73 12.0186 45.73 13.3212ZM42.3059 13.8833C42.3059 12.313 42.2269 11.1263 42.0689 10.3233C41.9987 9.91292 41.9284 9.5828 41.8582 9.33298C41.788 9.06531 41.7089 8.87794 41.6211 8.77088C41.5158 8.61028 41.3578 8.52998 41.147 8.52998C40.831 9.22591 40.6203 9.84154 40.5149 10.3769C40.4096 10.9122 40.3569 11.7152 40.3569 12.7859C40.3569 13.5175 40.3832 14.1153 40.4359 14.5792C40.4886 15.0253 40.5939 15.5696 40.752 16.212C40.8398 16.5332 40.9627 16.7919 41.1207 16.9882C41.2963 17.1845 41.4894 17.2827 41.7002 17.2827C41.8582 17.2827 41.9723 17.2113 42.0426 17.0685C42.1304 16.8901 42.2006 16.551 42.2533 16.0514C42.2884 15.8016 42.3059 15.4982 42.3059 15.1413C42.3059 14.7666 42.3059 14.3473 42.3059 13.8833Z" fill="#1A1A1A"/>
<path d="M56.2402 14.7131C56.5738 14.7131 56.7845 14.7755 56.8723 14.9004C56.9776 15.0075 57.0303 15.2395 57.0303 15.5964C57.0303 16.2209 56.8459 16.7473 56.4772 17.1756C56.1085 17.6039 55.6958 17.934 55.2393 18.166C54.6774 18.4515 53.9311 18.5942 53.0005 18.5942C51.824 18.5942 50.8583 18.2909 50.1032 17.6842C49.3482 17.0596 48.7951 16.3012 48.4439 15.409C48.0576 14.4454 47.8644 13.3926 47.8644 12.2505C47.8644 10.823 48.1454 9.59172 48.7073 8.55675C49.2692 7.52177 50.0154 6.75446 50.9461 6.25482C51.6133 5.89793 52.342 5.71949 53.1322 5.71949C53.8521 5.71949 54.4842 5.87116 55.0286 6.17452C55.5729 6.47787 55.9943 6.85261 56.2928 7.29872C56.5913 7.74483 56.7406 8.20878 56.7406 8.69058C56.7406 9.24376 56.6177 9.52034 56.3718 9.52034C56.3718 9.52034 56.3631 9.52034 56.3455 9.52034H54.1857C53.9399 9.52034 53.7731 9.46681 53.6853 9.35974C53.5975 9.25268 53.5536 9.07423 53.5536 8.82441C53.5536 7.62884 53.3078 7.03105 52.8161 7.03105C52.5001 7.03105 52.1928 7.26303 51.8943 7.72698C51.6133 8.17309 51.4728 8.97609 51.4728 10.136C51.4728 10.9925 51.7187 11.4208 52.2103 11.4208H55.3973C56.0294 11.4208 56.3455 11.6527 56.3455 12.1167C56.3455 12.4022 56.2665 12.5985 56.1085 12.7056C55.968 12.7948 55.7485 12.8394 55.45 12.8394H52.0523C51.824 12.8394 51.666 12.9643 51.5782 13.2141C51.508 13.464 51.4728 13.7316 51.4728 14.0171C51.4728 15.2662 51.5782 16.1495 51.7889 16.667C51.9996 17.1845 52.3332 17.4433 52.7898 17.4433C53.3166 17.4433 53.5799 16.9793 53.5799 16.0514C53.5799 15.1592 53.8082 14.7131 54.2648 14.7131H56.2402Z" fill="#1A1A1A"/>
<path d="M65.7451 6.06745C65.9734 6.06745 66.1227 6.10314 66.1929 6.17452C66.2983 6.28158 66.3597 6.38865 66.3773 6.49572C66.4124 6.63847 66.4036 6.73662 66.3509 6.79015C66.2807 7.00428 66.1753 7.68237 66.0349 8.82441C65.9471 9.71663 65.868 10.3769 65.7978 10.8051C65.7276 11.2156 65.6134 11.4208 65.4554 11.4208C65.0516 11.4208 64.7443 10.6892 64.5336 9.22591C64.3228 7.78051 63.8224 7.05782 63.0322 7.05782C62.7337 7.05782 62.5845 7.55746 62.5845 8.55675V17.6039C62.5845 18.0321 62.3826 18.2463 61.9787 18.2463H59.7926C59.4238 18.2463 59.2395 18.0232 59.2395 17.5771V6.73662C59.2395 6.4868 59.2834 6.31727 59.3712 6.22805C59.4765 6.12099 59.6609 6.06745 59.9243 6.06745H65.7451Z" fill="#1A1A1A"/>
<path d="M73.0842 12.1357C72.7254 12.1357 72.4043 12.0548 72.121 11.8929C71.8424 11.731 71.6205 11.5071 71.4552 11.2214C71.2947 10.9357 71.2144 10.6095 71.2144 10.2429C71.2144 9.87143 71.2947 9.54286 71.4552 9.25714C71.6205 8.97143 71.8424 8.75 72.121 8.59286C72.4043 8.43095 72.7254 8.35 73.0842 8.35C73.3817 8.35 73.6508 8.40714 73.8916 8.52143C74.1371 8.63571 74.3355 8.80714 74.4865 9.03571L74.2245 9.22857C74.0923 9.0381 73.927 8.89762 73.7287 8.80714C73.5304 8.71667 73.3156 8.67143 73.0842 8.67143C72.7962 8.67143 72.5365 8.7381 72.3051 8.87143C72.0785 9 71.8991 9.18333 71.7669 9.42143C71.6394 9.65476 71.5756 9.92857 71.5756 10.2429C71.5756 10.5571 71.6394 10.8333 71.7669 11.0714C71.8991 11.3048 72.0785 11.4881 72.3051 11.6214C72.5365 11.75 72.7962 11.8143 73.0842 11.8143C73.3156 11.8143 73.5304 11.769 73.7287 11.6786C73.927 11.5881 74.0923 11.4476 74.2245 11.2571L74.4865 11.45C74.3355 11.6786 74.1371 11.85 73.8916 11.9643C73.6508 12.0786 73.3817 12.1357 73.0842 12.1357Z" fill="black"/>
<path d="M76.122 12.1071V8.59286L76.2212 8.7H74.6772V8.37857H77.921V8.7H76.377L76.4762 8.59286V12.1071H76.122Z" fill="black"/>
<path d="M80.5419 12.1357C80.2161 12.1357 79.921 12.0595 79.6566 11.9071C79.3969 11.7548 79.1891 11.5381 79.0333 11.2571C78.8822 10.9714 78.8067 10.6333 78.8067 10.2429C78.8067 9.85238 78.8822 9.51667 79.0333 9.23572C79.1891 8.95 79.3969 8.73095 79.6566 8.57857C79.921 8.42619 80.2161 8.35 80.5419 8.35C80.8913 8.35 81.2029 8.43095 81.4768 8.59286C81.7554 8.75 81.9726 8.97143 82.1284 9.25714C82.2889 9.54286 82.3692 9.87143 82.3692 10.2429C82.3692 10.6143 82.2889 10.9429 82.1284 11.2286C81.9726 11.5143 81.7554 11.7381 81.4768 11.9C81.2029 12.0571 80.8913 12.1357 80.5419 12.1357ZM78.6863 13.4929V8.37857H79.0262V9.6L78.9696 10.25L79.0404 10.9V13.4929H78.6863ZM80.5207 11.8143C80.804 11.8143 81.0589 11.75 81.2856 11.6214C81.5122 11.4881 81.6893 11.3024 81.8168 11.0643C81.949 10.8262 82.0151 10.5524 82.0151 10.2429C82.0151 9.92857 81.949 9.65476 81.8168 9.42143C81.6893 9.18333 81.5122 9 81.2856 8.87143C81.0589 8.7381 80.804 8.67143 80.5207 8.67143C80.2374 8.67143 79.9824 8.7381 79.7557 8.87143C79.5338 9 79.3568 9.18333 79.2246 9.42143C79.0971 9.65476 79.0333 9.92857 79.0333 10.2429C79.0333 10.5524 79.0971 10.8262 79.2246 11.0643C79.3568 11.3024 79.5338 11.4881 79.7557 11.6214C79.9824 11.75 80.2374 11.8143 80.5207 11.8143Z" fill="black"/>
<path d="M84.9939 12.1357C84.6398 12.1357 84.3234 12.0548 84.0449 11.8929C83.771 11.731 83.5514 11.5071 83.3862 11.2214C83.2256 10.9357 83.1454 10.6095 83.1454 10.2429C83.1454 9.87143 83.2256 9.54524 83.3862 9.26429C83.5514 8.97857 83.771 8.75476 84.0449 8.59286C84.3234 8.43095 84.6398 8.35 84.9939 8.35C85.348 8.35 85.6644 8.43095 85.943 8.59286C86.2215 8.75476 86.4411 8.97857 86.6016 9.26429C86.7622 9.54524 86.8424 9.87143 86.8424 10.2429C86.8424 10.6095 86.7622 10.9357 86.6016 11.2214C86.4411 11.5071 86.2215 11.731 85.943 11.8929C85.6644 12.0548 85.348 12.1357 84.9939 12.1357ZM84.9939 11.8143C85.2772 11.8143 85.5322 11.75 85.7588 11.6214C85.9855 11.4881 86.1625 11.3024 86.29 11.0643C86.4175 10.8262 86.4812 10.5524 86.4812 10.2429C86.4812 9.92857 86.4175 9.65476 86.29 9.42143C86.1625 9.18333 85.9855 9 85.7588 8.87143C85.5322 8.7381 85.2772 8.67143 84.9939 8.67143C84.7106 8.67143 84.4556 8.7381 84.229 8.87143C84.0071 9 83.83 9.18333 83.6978 9.42143C83.5703 9.65476 83.5066 9.92857 83.5066 10.2429C83.5066 10.5524 83.5703 10.8262 83.6978 11.0643C83.83 11.3024 84.0071 11.4881 84.229 11.6214C84.4556 11.75 84.7106 11.8143 84.9939 11.8143Z" fill="black"/>
<path d="M87.9957 12.1071V8.37857H88.3499V11.5571L90.9845 8.37857H91.2962V12.1071H90.942V8.92857L88.3074 12.1071H87.9957Z" fill="black"/>
<path d="M93.4963 12.1071V8.59286L93.5954 8.7H92.0514V8.37857H95.2952V8.7H93.7512L93.8504 8.59286V12.1071H93.4963Z" fill="black"/>
<path d="M97.4103 12.1357C97.0373 12.1357 96.7068 12.0548 96.4188 11.8929C96.1355 11.731 95.9112 11.5071 95.746 11.2214C95.5854 10.9357 95.5052 10.6095 95.5052 10.2429C95.5052 9.87143 95.5807 9.54524 95.7318 9.26429C95.8876 8.97857 96.1001 8.75476 96.3692 8.59286C96.6384 8.43095 96.9405 8.35 97.2758 8.35C97.611 8.35 97.9108 8.42857 98.1753 8.58571C98.4444 8.74286 98.6545 8.96429 98.8056 9.25C98.9614 9.53095 99.0393 9.85714 99.0393 10.2286C99.0393 10.2429 99.037 10.2595 99.0322 10.2786C99.0322 10.2929 99.0322 10.3095 99.0322 10.3286H95.7672V10.05H98.841L98.6994 10.1857C98.7041 9.89524 98.6427 9.63571 98.5152 9.40714C98.3924 9.17381 98.2248 8.99286 98.0124 8.86429C97.7999 8.73095 97.5544 8.66429 97.2758 8.66429C97.0019 8.66429 96.7564 8.73095 96.5392 8.86429C96.3267 8.99286 96.1591 9.17381 96.0363 9.40714C95.9136 9.63571 95.8522 9.89762 95.8522 10.1929V10.2571C95.8522 10.5619 95.9183 10.8333 96.0505 11.0714C96.1874 11.3048 96.3739 11.4881 96.61 11.6214C96.8461 11.75 97.1152 11.8143 97.4174 11.8143C97.6535 11.8143 97.8731 11.7714 98.0761 11.6857C98.2839 11.6 98.4586 11.469 98.6002 11.2929L98.8056 11.5286C98.6451 11.7286 98.442 11.881 98.1965 11.9857C97.9557 12.0857 97.6936 12.1357 97.4103 12.1357Z" fill="black"/>
<path d="M99.6816 12.1429C99.6343 12.1429 99.5848 12.1381 99.5328 12.1286C99.4856 12.119 99.4337 12.1071 99.377 12.0929L99.4124 11.7857C99.4408 11.7905 99.4691 11.7976 99.4974 11.8071C99.5305 11.8119 99.5588 11.8143 99.5824 11.8143C99.7429 11.8143 99.8704 11.7548 99.9649 11.6357C100.059 11.5119 100.13 11.3476 100.177 11.1429C100.229 10.9381 100.265 10.7071 100.284 10.45C100.307 10.1929 100.326 9.93095 100.34 9.66429L100.404 8.37857H102.996V12.1071H102.642V8.58571L102.741 8.7H100.631L100.723 8.57857L100.666 9.69286C100.647 10.0167 100.621 10.3262 100.588 10.6214C100.555 10.9167 100.505 11.1786 100.439 11.4071C100.373 11.6357 100.279 11.8167 100.156 11.95C100.033 12.0786 99.8751 12.1429 99.6816 12.1429Z" fill="black"/>
<path d="M105.921 12.1214L104.526 12.1071V8.37857H104.88V9.72143L106.006 9.73571C106.464 9.74048 106.814 9.84286 107.055 10.0429C107.295 10.2381 107.416 10.5262 107.416 10.9071C107.416 11.3024 107.288 11.6048 107.033 11.8143C106.778 12.0238 106.408 12.1262 105.921 12.1214ZM105.914 11.8357C106.292 11.8405 106.575 11.7643 106.764 11.6071C106.958 11.45 107.055 11.2167 107.055 10.9071C107.055 10.6071 106.96 10.3833 106.771 10.2357C106.582 10.0881 106.297 10.0119 105.914 10.0071L104.88 10V11.8214L105.914 11.8357Z" fill="black"/>
<path d="M108.441 12.1071V8.37857H108.795V10.0786H111.302V8.37857H111.656V12.1071H111.302V10.3929H108.795V12.1071H108.441Z" fill="black"/>
<path d="M115.494 12.1071V11.2571L115.48 11.1286V9.72857C115.48 9.38095 115.386 9.11667 115.197 8.93571C115.013 8.75476 114.741 8.66429 114.383 8.66429C114.128 8.66429 113.889 8.70952 113.667 8.8C113.45 8.88571 113.264 8.99762 113.108 9.13571L112.931 8.87857C113.115 8.71191 113.337 8.58333 113.596 8.49286C113.856 8.39762 114.128 8.35 114.411 8.35C114.869 8.35 115.221 8.46667 115.466 8.7C115.712 8.93333 115.834 9.28095 115.834 9.74286V12.1071H115.494ZM114.163 12.1357C113.889 12.1357 113.651 12.0929 113.448 12.0071C113.249 11.9167 113.096 11.7905 112.987 11.6286C112.883 11.4667 112.831 11.281 112.831 11.0714C112.831 10.881 112.874 10.7095 112.959 10.5571C113.049 10.4 113.195 10.2738 113.398 10.1786C113.601 10.0786 113.873 10.0286 114.213 10.0286H115.572V10.3071H114.22C113.837 10.3071 113.568 10.3786 113.412 10.5214C113.261 10.6643 113.186 10.8429 113.186 11.0571C113.186 11.2952 113.275 11.4857 113.455 11.6286C113.634 11.7714 113.887 11.8429 114.213 11.8429C114.524 11.8429 114.786 11.7714 114.999 11.6286C115.216 11.4857 115.376 11.2786 115.48 11.0071L115.579 11.25C115.48 11.5214 115.31 11.7381 115.07 11.9C114.833 12.0571 114.531 12.1357 114.163 12.1357Z" fill="black"/>
<path d="M119.674 12.1071V10.7357L119.752 10.8214H118.442C117.979 10.8214 117.618 10.7214 117.358 10.5214C117.103 10.3167 116.976 10.0167 116.976 9.62143C116.976 9.20238 117.115 8.89048 117.394 8.68571C117.672 8.48095 118.041 8.37857 118.499 8.37857H120V12.1071H119.674ZM116.955 12.1071L117.981 10.6714H118.357L117.344 12.1071H116.955ZM119.674 10.6357V8.58571L119.752 8.69286H118.52C118.142 8.69286 117.849 8.76667 117.642 8.91429C117.434 9.06191 117.33 9.30238 117.33 9.63572C117.33 10.2452 117.712 10.55 118.477 10.55H119.752L119.674 10.6357Z" fill="black"/>
<path d="M74.3166 18.3571L72.7301 16.4929L73.0275 16.3214L74.7415 18.3571H74.3166ZM71.5898 18.3571V14.6286H71.9439V18.3571H71.5898ZM71.8306 16.6286V16.3214H72.9921V16.6286H71.8306ZM73.0488 16.5286L72.723 16.4714L74.2387 14.6286H74.6282L73.0488 16.5286Z" fill="black"/>
<path d="M76.9639 18.3857C76.6097 18.3857 76.2934 18.3048 76.0148 18.1429C75.741 17.981 75.5214 17.7571 75.3561 17.4714C75.1956 17.1857 75.1153 16.8595 75.1153 16.4929C75.1153 16.1214 75.1956 15.7952 75.3561 15.5143C75.5214 15.2286 75.741 15.0048 76.0148 14.8429C76.2934 14.681 76.6097 14.6 76.9639 14.6C77.318 14.6 77.6343 14.681 77.9129 14.8429C78.1915 15.0048 78.4111 15.2286 78.5716 15.5143C78.7321 15.7952 78.8124 16.1214 78.8124 16.4929C78.8124 16.8595 78.7321 17.1857 78.5716 17.4714C78.4111 17.7571 78.1915 17.981 77.9129 18.1429C77.6343 18.3048 77.318 18.3857 76.9639 18.3857ZM76.9639 18.0643C77.2472 18.0643 77.5021 18 77.7288 17.8714C77.9554 17.7381 78.1325 17.5524 78.26 17.3143C78.3874 17.0762 78.4512 16.8024 78.4512 16.4929C78.4512 16.1786 78.3874 15.9048 78.26 15.6714C78.1325 15.4333 77.9554 15.25 77.7288 15.1214C77.5021 14.9881 77.2472 14.9214 76.9639 14.9214C76.6806 14.9214 76.4256 14.9881 76.199 15.1214C75.977 15.25 75.8 15.4333 75.6678 15.6714C75.5403 15.9048 75.4765 16.1786 75.4765 16.4929C75.4765 16.8024 75.5403 17.0762 75.6678 17.3143C75.8 17.5524 75.977 17.7381 76.199 17.8714C76.4256 18 76.6806 18.0643 76.9639 18.0643Z" fill="black"/>
<path d="M79.9657 18.3571V14.6286H80.3127L82.0621 17.5786H81.9063L83.6627 14.6286H83.9885V18.3571H83.6627V15.0571L83.7336 15.0857L82.055 17.8786H81.8921L80.2065 15.0643L80.2915 15.05V18.3571H79.9657Z" fill="black"/>
<path d="M85.5196 18.3571V14.6286H88.7492V18.3571H88.3951V14.8429L88.4943 14.95H85.7746L85.8737 14.8429V18.3571H85.5196Z" fill="black"/>
<path d="M92.5871 18.3571V17.5071L92.5729 17.3786V15.9786C92.5729 15.631 92.4785 15.3667 92.2896 15.1857C92.1055 15.0048 91.834 14.9143 91.4751 14.9143C91.2201 14.9143 90.9817 14.9595 90.7598 15.05C90.5426 15.1357 90.3561 15.2476 90.2003 15.3857L90.0232 15.1286C90.2073 14.9619 90.4293 14.8333 90.689 14.7429C90.9486 14.6476 91.2201 14.6 91.5034 14.6C91.9614 14.6 92.3132 14.7167 92.5587 14.95C92.8043 15.1833 92.927 15.531 92.927 15.9929V18.3571H92.5871ZM91.2556 18.3857C90.9817 18.3857 90.7433 18.3429 90.5402 18.2571C90.3419 18.1667 90.1885 18.0405 90.0799 17.8786C89.976 17.7167 89.924 17.531 89.924 17.3214C89.924 17.131 89.9665 16.9595 90.0515 16.8071C90.1412 16.65 90.2876 16.5238 90.4906 16.4286C90.6937 16.3286 90.9652 16.2786 91.3051 16.2786H92.665V16.5571H91.3122C90.9298 16.5571 90.6606 16.6286 90.5048 16.7714C90.3537 16.9143 90.2782 17.0929 90.2782 17.3071C90.2782 17.5452 90.3679 17.7357 90.5473 17.8786C90.7267 18.0214 90.9793 18.0929 91.3051 18.0929C91.6168 18.0929 91.8788 18.0214 92.0913 17.8786C92.3085 17.7357 92.469 17.5286 92.5729 17.2571L92.6721 17.5C92.5729 17.7714 92.4029 17.9881 92.1621 18.15C91.926 18.3071 91.6238 18.3857 91.2556 18.3857Z" fill="black"/>
<path d="M94.3658 18.3571V14.6286H94.7199V16.3286H97.2271V14.6286H97.5813V18.3571H97.2271V16.6429H94.7199V18.3571H94.3658Z" fill="black"/>
<path d="M99.1105 18.3571V14.6286H99.4647V17.8071L102.099 14.6286H102.411V18.3571H102.057V15.1786L99.4222 18.3571H99.1105Z" fill="black"/>
<path d="M106.339 18.3571V16.9857L106.417 17.0714H105.107C104.644 17.0714 104.283 16.9714 104.023 16.7714C103.768 16.5667 103.641 16.2667 103.641 15.8714C103.641 15.4524 103.78 15.1405 104.059 14.9357C104.337 14.731 104.706 14.6286 105.164 14.6286H106.665V18.3571H106.339ZM103.62 18.3571L104.646 16.9214H105.022L104.009 18.3571H103.62ZM106.339 16.8857V14.8357L106.417 14.9429H105.185C104.807 14.9429 104.514 15.0167 104.307 15.1643C104.099 15.3119 103.995 15.5524 103.995 15.8857C103.995 16.4952 104.377 16.8 105.142 16.8H106.417L106.339 16.8857Z" fill="black"/>
<path d="M68.169 5.85714H68.5231V18.3571H68.169V5.85714Z" fill="#1A1A1A"/>
</svg>
