<svg width="160" height="24" viewBox="0 0 160 24" fill="none" xmlns="http://www.w3.org/2000/svg">
<path d="M2.98142 11.9844C2.98142 13.7377 3.35686 15.3023 4.10774 16.6783C4.8807 18.0543 5.92972 19.1417 7.25479 19.9407C8.57987 20.7397 10.0816 21.1391 11.7601 21.1391C13.4606 21.1391 14.9623 20.7397 16.2653 19.9407C17.5904 19.1417 18.6284 18.0543 19.3792 16.6783C20.1522 15.3023 20.5387 13.7377 20.5387 11.9844C20.5387 10.2311 20.1522 8.66649 19.3792 7.29051C18.6284 5.91452 17.5904 4.82705 16.2653 4.02809C14.9623 3.22913 13.4606 2.82965 11.7601 2.82965C10.0816 2.82965 8.57987 3.22913 7.25479 4.02809C5.92972 4.82705 4.8807 5.91452 4.10774 7.29051C3.35686 8.66649 2.98142 10.2311 2.98142 11.9844ZM0 11.9844C0 10.2755 0.2871 8.69978 0.8613 7.25722C1.45758 5.79246 2.28576 4.52744 3.34582 3.46216C4.40588 2.37469 5.65366 1.53134 7.08916 0.93212C8.52466 0.310707 10.0816 0 11.7601 0C13.4606 0 15.0175 0.310707 16.4309 0.93212C17.8664 1.53134 19.1142 2.37469 20.1743 3.46216C21.2344 4.52744 22.0515 5.79246 22.6257 7.25722C23.222 8.69978 23.5201 10.2755 23.5201 11.9844C23.5201 13.6711 23.222 15.2468 22.6257 16.7116C22.0515 18.1763 21.2344 19.4524 20.1743 20.5399C19.1142 21.6052 17.8664 22.4485 16.4309 23.07C15.0175 23.6692 13.4606 23.9688 11.7601 23.9688C10.0816 23.9688 8.52466 23.6692 7.08916 23.07C5.65366 22.4485 4.40588 21.6052 3.34582 20.5399C2.28576 19.4524 1.45758 18.1763 0.8613 16.7116C0.2871 15.2468 0 13.6711 0 11.9844Z" fill="#373737"/>
<path d="M27.066 12.3173V9.6541H31.8031C33.3049 9.6541 34.641 9.94261 35.8115 10.5196C37.0041 11.0745 37.9427 11.8734 38.6273 12.9165C39.334 13.9596 39.6873 15.2024 39.6873 16.645C39.6873 18.0654 39.334 19.3082 38.6273 20.3735C37.9427 21.4166 37.0041 22.2266 35.8115 22.8036C34.641 23.3585 33.3049 23.6359 31.8031 23.6359H27.066V20.9727H31.8031C32.7969 20.9727 33.6693 20.8173 34.4202 20.5066C35.1931 20.1737 35.7894 19.6855 36.209 19.0419C36.6507 18.3983 36.8715 17.5993 36.8715 16.645C36.8715 15.6907 36.6507 14.8917 36.209 14.2481C35.7894 13.6045 35.1931 13.1274 34.4202 12.8166C33.6693 12.4837 32.7969 12.3173 31.8031 12.3173H27.066ZM25.509 0.3329H37.9316V2.9961H28.3248V23.6359H25.509V0.3329Z" fill="#373737"/>
<path d="M43.227 23.6359V20.9727H54.9208V23.6359H43.227ZM43.227 2.9961V0.3329H54.9208V2.9961H43.227ZM43.227 12.3173V9.6541H54.2583V12.3173H43.227ZM41.67 0.3329H44.4858V23.6359H41.67V0.3329Z" fill="#373737"/>
<path d="M57.8957 0.3329H60.7115V23.6359H57.8957V0.3329ZM59.4527 2.9961V0.3329H64.1899C65.6916 0.3329 67.0277 0.621413 68.1982 1.19844C69.3908 1.75327 70.3294 2.55223 71.014 3.59532C71.7207 4.63841 72.0741 5.88123 72.0741 7.3238C72.0741 8.74417 71.7207 9.987 71.014 11.0523C70.3294 12.0954 69.3908 12.9054 68.1982 13.4824C67.0277 14.0373 65.6916 14.3147 64.1899 14.3147H59.4527V11.6515H64.1899C65.6916 11.6515 66.9063 11.2853 67.8338 10.5529C68.7835 9.82055 69.2583 8.74417 69.2583 7.3238C69.2583 5.88123 68.7835 4.80486 67.8338 4.09467C66.9063 3.36229 65.6916 2.9961 64.1899 2.9961H59.4527Z" fill="#373737"/>
<path d="M75.6137 23.6359V20.9727H87.3075V23.6359H75.6137ZM75.6137 2.9961V0.3329H87.3075V2.9961H75.6137ZM75.6137 12.3173V9.6541H86.645V12.3173H75.6137ZM74.0568 0.3329H76.8725V23.6359H74.0568V0.3329Z" fill="#373737"/>
<path d="M90.2825 0.3329H101.711V2.9961H93.0983V23.6359H90.2825V0.3329Z" fill="#373737"/>
<path d="M103.097 12.9207C103.097 13.3091 103.18 13.6524 103.346 13.9506C103.511 14.2488 103.736 14.4846 104.019 14.658C104.308 14.8244 104.633 14.9077 104.992 14.9077C105.247 14.9077 105.485 14.8695 105.706 14.7932C105.927 14.7169 106.117 14.6199 106.275 14.502C106.441 14.3771 106.558 14.2523 106.627 14.1274V14.8036C106.482 14.977 106.258 15.1227 105.954 15.2406C105.658 15.3585 105.337 15.4174 104.992 15.4174C104.529 15.4174 104.115 15.3099 103.749 15.0949C103.384 14.8799 103.09 14.5852 102.869 14.2107C102.655 13.8292 102.548 13.3992 102.548 12.9207C102.548 12.4352 102.655 12.0052 102.869 11.6307C103.09 11.2562 103.384 10.9614 103.749 10.7464C104.115 10.5314 104.529 10.4239 104.992 10.4239C105.337 10.4239 105.658 10.4863 105.954 10.6112C106.258 10.7291 106.482 10.8713 106.627 11.0377V11.7139C106.558 11.5821 106.441 11.4573 106.275 11.3394C106.117 11.2215 105.927 11.1244 105.706 11.0481C105.485 10.9718 105.247 10.9337 104.992 10.9337C104.633 10.9337 104.308 11.0204 104.019 11.1938C103.736 11.3602 103.511 11.5925 103.346 11.8908C103.18 12.189 103.097 12.5323 103.097 12.9207Z" fill="#373737"/>
<path d="M107.192 10.528H109.987V11.0377H107.192V10.528ZM108.32 10.6736H108.859V15.3134H108.32V10.6736Z" fill="#373737"/>
<path d="M111.346 17.6021H110.808V10.528H111.346V17.6021ZM115.414 12.9207C115.414 13.4339 115.311 13.8778 115.104 14.2523C114.904 14.6268 114.628 14.9146 114.276 15.1157C113.93 15.3169 113.544 15.4174 113.116 15.4174C112.716 15.4174 112.364 15.3099 112.06 15.0949C111.757 14.873 111.518 14.5748 111.346 14.2003C111.18 13.8188 111.097 13.3923 111.097 12.9207C111.097 12.4421 111.18 12.0156 111.346 11.6411C111.518 11.2666 111.757 10.9718 112.06 10.7568C112.364 10.5349 112.716 10.4239 113.116 10.4239C113.544 10.4239 113.93 10.5245 114.276 10.7256C114.628 10.9267 114.904 11.2146 115.104 11.5891C115.311 11.9567 115.414 12.4005 115.414 12.9207ZM114.876 12.9207C114.876 12.5046 114.793 12.1474 114.628 11.8492C114.462 11.5509 114.241 11.3255 113.965 11.173C113.689 11.0134 113.382 10.9337 113.044 10.9337C112.754 10.9337 112.478 11.0204 112.215 11.1938C111.953 11.3671 111.743 11.6029 111.584 11.9012C111.425 12.1994 111.346 12.5392 111.346 12.9207C111.346 13.3021 111.425 13.642 111.584 13.9402C111.743 14.2384 111.953 14.4742 112.215 14.6476C112.478 14.821 112.754 14.9077 113.044 14.9077C113.382 14.9077 113.689 14.8314 113.965 14.6788C114.241 14.5193 114.462 14.2904 114.628 13.9922C114.793 13.694 114.876 13.3368 114.876 12.9207Z" fill="#373737"/>
<path d="M116.349 12.9207C116.349 12.4352 116.456 12.0052 116.67 11.6307C116.884 11.2562 117.174 10.9614 117.54 10.7464C117.912 10.5314 118.33 10.4239 118.792 10.4239C119.255 10.4239 119.669 10.5314 120.035 10.7464C120.407 10.9614 120.701 11.2562 120.915 11.6307C121.128 12.0052 121.235 12.4352 121.235 12.9207C121.235 13.3992 121.128 13.8292 120.915 14.2107C120.701 14.5852 120.407 14.8799 120.035 15.0949C119.669 15.3099 119.255 15.4174 118.792 15.4174C118.33 15.4174 117.912 15.3099 117.54 15.0949C117.174 14.8799 116.884 14.5852 116.67 14.2107C116.456 13.8292 116.349 13.3992 116.349 12.9207ZM116.898 12.9207C116.898 13.3091 116.981 13.6524 117.146 13.9506C117.312 14.2488 117.536 14.4846 117.819 14.658C118.109 14.8244 118.433 14.9077 118.792 14.9077C119.151 14.9077 119.472 14.8244 119.755 14.658C120.045 14.4846 120.273 14.2488 120.438 13.9506C120.604 13.6524 120.687 13.3091 120.687 12.9207C120.687 12.5392 120.604 12.1994 120.438 11.9012C120.273 11.596 120.045 11.3602 119.755 11.1938C119.472 11.0204 119.151 10.9337 118.792 10.9337C118.433 10.9337 118.109 11.0204 117.819 11.1938C117.536 11.3602 117.312 11.5925 117.146 11.8908C116.981 12.189 116.898 12.5323 116.898 12.9207Z" fill="#373737"/>
<path d="M126.069 10.9961L122.425 15.6775L122.477 14.8453L126.121 10.1638L126.069 10.9961ZM122.963 10.528V14.9077L122.425 15.6775V10.528H122.963ZM126.121 10.1638V15.3134H125.582V10.9337L126.121 10.1638Z" fill="#373737"/>
<path d="M126.996 10.528H129.791V11.0377H126.996V10.528ZM128.125 10.6736H128.663V15.3134H128.125V10.6736Z" fill="#373737"/>
<path d="M130.44 13.0559V12.5878H133.98C133.98 12.2618 133.911 11.974 133.773 11.7243C133.635 11.4677 133.445 11.2666 133.204 11.1209C132.969 10.9753 132.697 10.9025 132.386 10.9025C132.075 10.9025 131.789 10.9753 131.527 11.1209C131.265 11.2666 131.054 11.4781 130.895 11.7555C130.737 12.026 130.657 12.3485 130.657 12.723L130.647 12.9103C130.647 13.3125 130.719 13.6662 130.864 13.9714C131.009 14.2696 131.209 14.502 131.465 14.6684C131.727 14.8279 132.027 14.9077 132.365 14.9077C132.669 14.9077 132.924 14.8626 133.131 14.7724C133.345 14.6753 133.525 14.554 133.67 14.4083C133.822 14.2557 133.949 14.0928 134.053 13.9194L134.488 14.2003C134.349 14.4153 134.191 14.6164 134.011 14.8036C133.832 14.984 133.608 15.1331 133.338 15.251C133.069 15.3619 132.724 15.4174 132.303 15.4174C131.889 15.4174 131.513 15.3099 131.175 15.0949C130.844 14.8799 130.581 14.5817 130.388 14.2003C130.195 13.8188 130.098 13.3888 130.098 12.9103C130.098 12.7993 130.102 12.6953 130.109 12.5982C130.122 12.4941 130.14 12.3901 130.16 12.2861C130.243 11.9185 130.385 11.596 130.585 11.3186C130.785 11.0342 131.04 10.8158 131.351 10.6632C131.661 10.5037 132.006 10.4239 132.386 10.4239C132.8 10.4239 133.173 10.5245 133.504 10.7256C133.835 10.9198 134.094 11.1938 134.28 11.5475C134.474 11.9012 134.57 12.3173 134.57 12.7958C134.57 12.8375 134.567 12.8825 134.56 12.9311C134.56 12.9727 134.557 13.0143 134.55 13.0559H130.44Z" fill="#373737"/>
<path d="M139.681 10.528V15.3134H139.142V11.0377H136.42V13.6489C136.42 14.0234 136.368 14.3355 136.264 14.5852C136.168 14.8279 136.023 15.0117 135.83 15.1365C135.636 15.2544 135.402 15.3134 135.126 15.3134V14.814C135.333 14.814 135.509 14.7204 135.654 14.5332C135.805 14.3459 135.881 14.0511 135.881 13.6489V10.528H139.681Z" fill="#373737"/>
<path d="M141.288 10.528H141.826V15.3134H141.288V10.528ZM141.588 12.8166V12.3381H142.965C143.455 12.3381 143.866 12.4595 144.197 12.7022C144.535 12.938 144.704 13.3125 144.704 13.8257C144.704 14.1656 144.628 14.4465 144.477 14.6684C144.325 14.8903 144.118 15.0533 143.855 15.1573C143.593 15.2614 143.296 15.3134 142.965 15.3134H141.588V14.8349H142.965C143.207 14.8349 143.417 14.8002 143.597 14.7308C143.776 14.6545 143.914 14.5436 144.011 14.3979C144.114 14.2453 144.166 14.0546 144.166 13.8257C144.166 13.4928 144.056 13.2432 143.835 13.0767C143.621 12.9033 143.331 12.8166 142.965 12.8166H141.588Z" fill="#373737"/>
<path d="M146.32 13.0351V12.5254H149.798V13.0351H146.32ZM149.467 10.528H150.005V15.3134H149.467V10.528ZM145.999 10.528H146.537V15.3134H145.999V10.528Z" fill="#373737"/>
<path d="M151.684 13.909C151.684 14.1448 151.739 14.339 151.849 14.4915C151.96 14.6372 152.105 14.7482 152.284 14.8244C152.47 14.8938 152.667 14.9285 152.874 14.9285C153.164 14.9285 153.423 14.873 153.65 14.762C153.885 14.6511 154.068 14.4915 154.199 14.2835C154.33 14.0754 154.396 13.8223 154.396 13.5241L154.52 13.8362C154.52 14.1413 154.441 14.4153 154.282 14.658C154.13 14.8938 153.92 15.0811 153.65 15.2198C153.388 15.3515 153.088 15.4174 152.75 15.4174C152.467 15.4174 152.201 15.3654 151.953 15.2614C151.711 15.1504 151.514 14.9874 151.363 14.7724C151.211 14.5505 151.135 14.2696 151.135 13.9298C151.135 13.5899 151.221 13.3056 151.394 13.0767C151.566 12.8409 151.801 12.6641 152.098 12.5462C152.394 12.4213 152.729 12.3589 153.102 12.3589C153.392 12.3589 153.637 12.3936 153.837 12.4629C154.044 12.5323 154.209 12.6121 154.334 12.7022C154.465 12.7924 154.558 12.8687 154.613 12.9311V13.264C154.42 13.1183 154.203 13.0039 153.961 12.9207C153.726 12.8305 153.447 12.7854 153.123 12.7854C152.846 12.7854 152.598 12.8305 152.377 12.9207C152.163 13.0039 151.994 13.1287 151.87 13.2952C151.746 13.4616 151.684 13.6662 151.684 13.909ZM151.818 11.4746L151.549 11.0585C151.728 10.9129 151.96 10.7707 152.243 10.632C152.532 10.4933 152.881 10.4239 153.288 10.4239C153.633 10.4239 153.927 10.4863 154.168 10.6112C154.417 10.7291 154.606 10.899 154.737 11.1209C154.869 11.3429 154.934 11.6099 154.934 11.922V15.3134H154.396V11.922C154.396 11.596 154.292 11.3463 154.085 11.173C153.885 10.9926 153.619 10.9025 153.288 10.9025C153.06 10.9025 152.853 10.9337 152.667 10.9961C152.481 11.0516 152.315 11.1244 152.17 11.2146C152.032 11.3047 151.915 11.3914 151.818 11.4746Z" fill="#373737"/>
<path d="M156.956 15.3134H156.356L158.012 13.0143H158.613L156.956 15.3134ZM160 15.3134H159.462V10.528H160V15.3134ZM159.679 12.9207V13.3992H158.323C157.999 13.3992 157.702 13.3507 157.433 13.2536C157.17 13.1565 156.963 13.0039 156.812 12.7958C156.66 12.5808 156.584 12.3034 156.584 11.9636C156.584 11.6168 156.66 11.3394 156.812 11.1313C156.963 10.9233 157.17 10.7707 157.433 10.6736C157.702 10.5765 157.999 10.528 158.323 10.528H159.679V11.0065H158.323C158.081 11.0065 157.871 11.0412 157.691 11.1105C157.512 11.173 157.371 11.2735 157.267 11.4122C157.17 11.5509 157.122 11.7347 157.122 11.9636C157.122 12.1855 157.17 12.3693 157.267 12.515C157.371 12.6537 157.512 12.7577 157.691 12.827C157.871 12.8895 158.081 12.9207 158.323 12.9207H159.679Z" fill="#373737"/>
<path d="M102.963 18.8505H103.501V23.6359H102.963V18.8505ZM105.54 18.8505H106.234L103.987 20.827L106.431 23.6359H105.747L103.304 20.827L105.54 18.8505Z" fill="#373737"/>
<path d="M107.008 21.2432C107.008 20.7577 107.115 20.3277 107.329 19.9532C107.543 19.5787 107.833 19.2839 108.199 19.0689C108.571 18.8539 108.989 18.7464 109.451 18.7464C109.914 18.7464 110.328 18.8539 110.693 19.0689C111.066 19.2839 111.359 19.5787 111.573 19.9532C111.787 20.3277 111.894 20.7577 111.894 21.2432C111.894 21.7217 111.787 22.1517 111.573 22.5332C111.359 22.9077 111.066 23.2024 110.693 23.4174C110.328 23.6324 109.914 23.7399 109.451 23.7399C108.989 23.7399 108.571 23.6324 108.199 23.4174C107.833 23.2024 107.543 22.9077 107.329 22.5332C107.115 22.1517 107.008 21.7217 107.008 21.2432ZM107.557 21.2432C107.557 21.6316 107.639 21.9749 107.805 22.2731C107.971 22.5713 108.195 22.8071 108.478 22.9805C108.768 23.1469 109.092 23.2302 109.451 23.2302C109.81 23.2302 110.131 23.1469 110.414 22.9805C110.704 22.8071 110.931 22.5713 111.097 22.2731C111.263 21.9749 111.346 21.6316 111.346 21.2432C111.346 20.8617 111.263 20.5219 111.097 20.2237C110.931 19.9185 110.704 19.6827 110.414 19.5163C110.131 19.3429 109.81 19.2562 109.451 19.2562C109.092 19.2562 108.768 19.3429 108.478 19.5163C108.195 19.6827 107.971 19.915 107.805 20.2133C107.639 20.5115 107.557 20.8548 107.557 21.2432Z" fill="#373737"/>
<path d="M117.877 23.6359L116.955 19.4642L117.245 18.4863L118.488 23.6359H117.877ZM115.196 23.1677L117.245 18.4863L117.297 19.6515L115.382 23.9584L115.196 23.1677ZM115.382 23.9584L113.498 19.6515L113.55 18.4863L115.568 23.1677L115.382 23.9584ZM112.307 23.6359L113.55 18.4863L113.839 19.4642L112.928 23.6359H112.307Z" fill="#373737"/>
<path d="M122.912 18.8505V23.6359H122.374V19.3602H119.858V23.6359H119.32V18.8505H122.912Z" fill="#373737"/>
<path d="M124.59 22.2315C124.59 22.4673 124.645 22.6615 124.756 22.814C124.866 22.9597 125.011 23.0707 125.19 23.1469C125.377 23.2163 125.573 23.251 125.781 23.251C126.07 23.251 126.329 23.1955 126.557 23.0845C126.792 22.9736 126.974 22.814 127.106 22.606C127.237 22.3979 127.302 22.1448 127.302 21.8466L127.427 22.1586C127.427 22.4638 127.347 22.7378 127.188 22.9805C127.037 23.2163 126.826 23.4036 126.557 23.5423C126.295 23.674 125.994 23.7399 125.656 23.7399C125.373 23.7399 125.108 23.6879 124.859 23.5839C124.618 23.4729 124.421 23.3099 124.269 23.0949C124.117 22.873 124.041 22.5921 124.041 22.2523C124.041 21.9124 124.128 21.6281 124.3 21.3992C124.473 21.1634 124.707 20.9866 125.004 20.8687C125.301 20.7438 125.636 20.6814 126.008 20.6814C126.298 20.6814 126.543 20.7161 126.743 20.7854C126.95 20.8548 127.116 20.9345 127.24 21.0247C127.371 21.1149 127.464 21.1912 127.52 21.2536V21.5865C127.326 21.4408 127.109 21.3264 126.867 21.2432C126.633 21.153 126.353 21.1079 126.029 21.1079C125.753 21.1079 125.504 21.153 125.284 21.2432C125.07 21.3264 124.901 21.4512 124.776 21.6177C124.652 21.7841 124.59 21.9887 124.59 22.2315ZM124.725 19.7971L124.455 19.381C124.635 19.2354 124.866 19.0932 125.149 18.9545C125.439 18.8158 125.787 18.7464 126.195 18.7464C126.54 18.7464 126.833 18.8088 127.075 18.9337C127.323 19.0516 127.513 19.2215 127.644 19.4434C127.775 19.6654 127.841 19.9324 127.841 20.2445V23.6359H127.302V20.2445C127.302 19.9185 127.199 19.6688 126.992 19.4954C126.792 19.3151 126.526 19.225 126.195 19.225C125.967 19.225 125.76 19.2562 125.573 19.3186C125.387 19.3741 125.222 19.4469 125.077 19.5371C124.939 19.6272 124.821 19.7139 124.725 19.7971Z" fill="#373737"/>
<path d="M129.811 21.3576V20.8479H133.289V21.3576H129.811ZM132.958 18.8505H133.497V23.6359H132.958V18.8505ZM129.49 18.8505H130.029V23.6359H129.49V18.8505Z" fill="#373737"/>
<path d="M138.746 19.3186L135.102 24L135.154 23.1677L138.798 18.4863L138.746 19.3186ZM135.641 18.8505V23.2302L135.102 24V18.8505H135.641ZM138.798 18.4863V23.6359H138.26V19.2562L138.798 18.4863Z" fill="#373737"/>
<path d="M140.771 23.6359H140.171L141.827 21.3368H142.427L140.771 23.6359ZM143.815 23.6359H143.276V18.8505H143.815V23.6359ZM143.494 21.2432V21.7217H142.138C141.813 21.7217 141.516 21.6732 141.247 21.5761C140.985 21.479 140.778 21.3264 140.626 21.1183C140.474 20.9033 140.398 20.6259 140.398 20.2861C140.398 19.9393 140.474 19.6619 140.626 19.4538C140.778 19.2458 140.985 19.0932 141.247 18.9961C141.516 18.899 141.813 18.8505 142.138 18.8505H143.494V19.329H142.138C141.896 19.329 141.686 19.3637 141.506 19.433C141.327 19.4954 141.185 19.596 141.082 19.7347C140.985 19.8734 140.937 20.0572 140.937 20.2861C140.937 20.508 140.985 20.6918 141.082 20.8375C141.185 20.9762 141.327 21.0802 141.506 21.1495C141.686 21.212 141.896 21.2432 142.138 21.2432H143.494Z" fill="#373737"/>
</svg>
